<svg width="302" height="113" viewBox="0 0 302 113" fill="none" xmlns="http://www.w3.org/2000/svg">
<path d="M40.8841 110.552C32.9545 110.552 25.9001 109.265 19.7211 106.69C13.5765 104.081 8.75346 100.529 5.25204 96.0316C1.75062 91.5347 -8.84347e-05 86.4371 -8.84347e-05 80.7387C-8.84347e-05 76.3447 0.995413 72.3112 2.98642 68.6382C5.01175 64.9308 7.75796 61.8585 11.2251 59.4212C14.6921 56.9496 18.5712 55.3705 22.8621 54.684V53.9631C17.2324 52.8303 12.6668 50.1012 9.16539 45.776C5.66397 41.4163 3.91326 36.353 3.91326 30.586C3.91326 25.1279 5.5095 20.2705 8.70197 16.0139C11.8944 11.7229 16.2712 8.35881 21.8323 5.92155C27.4277 3.44996 33.7783 2.21416 40.8841 2.21416C47.99 2.21416 54.3234 3.44996 59.8845 5.92155C65.4799 8.39314 69.8738 11.7744 73.0663 16.0654C76.2588 20.322 77.8722 25.1622 77.9065 30.586C77.8722 36.3873 76.0872 41.4507 72.5514 45.776C69.0157 50.1012 64.4844 52.8303 58.9577 53.9631V54.684C63.18 55.3705 67.0075 56.9496 70.4403 59.4212C73.9073 61.8585 76.6536 64.9308 78.6789 68.6382C80.7386 72.3112 81.7855 76.3447 81.8199 80.7387C81.7855 86.4371 80.0177 91.5347 76.5162 96.0316C73.0148 100.529 68.1746 104.081 61.9957 106.69C55.851 109.265 48.8138 110.552 40.8841 110.552ZM40.8841 94.1779C44.4199 94.1779 47.5094 93.5429 50.1526 92.2728C52.7958 90.9683 54.8555 89.1833 56.3316 86.9176C57.842 84.6177 58.5972 81.9745 58.5972 78.988C58.5972 75.9328 57.8248 73.2381 56.2801 70.9038C54.7354 68.5352 52.6414 66.6815 49.9981 65.3427C47.3549 63.9696 44.3169 63.2831 40.8841 63.2831C37.4857 63.2831 34.4477 63.9696 31.7702 65.3427C29.0926 66.6815 26.9814 68.5352 25.4367 70.9038C23.9263 73.2381 23.1711 75.9328 23.1711 78.988C23.1711 81.9745 23.9091 84.6177 25.3852 86.9176C26.8613 89.1833 28.9381 90.9683 31.6157 92.2728C34.2932 93.5429 37.3827 94.1779 40.8841 94.1779ZM40.8841 47.0632C43.8363 47.0632 46.4624 46.4625 48.7623 45.261C51.0623 44.0596 52.8645 42.3947 54.1689 40.2664C55.4734 38.1381 56.1256 35.6836 56.1256 32.9031C56.1256 30.1569 55.4734 27.7539 54.1689 25.6943C52.8645 23.6003 51.0795 21.9697 48.8138 20.8026C46.5482 19.6011 43.905 19.0004 40.8841 19.0004C37.8976 19.0004 35.2544 19.6011 32.9545 20.8026C30.6545 21.9697 28.8523 23.6003 27.5479 25.6943C26.2777 27.7539 25.6427 30.1569 25.6427 32.9031C25.6427 35.6836 26.2949 38.1381 27.5993 40.2664C28.9038 42.3947 30.706 44.0596 33.006 45.261C35.3059 46.4625 37.932 47.0632 40.8841 47.0632ZM138.757 111.428C129.9 111.393 122.279 109.213 115.894 104.888C109.544 100.563 104.652 94.2981 101.219 86.0938C97.8208 77.8895 96.1388 68.0203 96.1731 56.4862C96.1731 44.9864 97.8723 35.1859 101.271 27.0845C104.704 18.9832 109.595 12.8214 115.946 8.59911C122.331 4.34248 129.934 2.21416 138.757 2.21416C147.579 2.21416 155.165 4.34248 161.516 8.59911C167.901 12.8557 172.81 19.0347 176.242 27.136C179.675 35.203 181.374 44.9864 181.34 56.4862C181.34 68.0546 179.624 77.941 176.191 86.1453C172.792 94.3496 167.918 100.614 161.567 104.94C155.217 109.265 147.613 111.428 138.757 111.428ZM138.757 92.9421C144.798 92.9421 149.621 89.9042 153.226 83.8282C156.83 77.7522 158.615 68.6382 158.581 56.4862C158.581 48.4878 157.757 41.8283 156.109 36.5075C154.496 31.1867 152.196 27.1875 149.209 24.51C146.257 21.8324 142.773 20.4936 138.757 20.4936C132.749 20.4936 127.943 23.4973 124.339 29.5046C120.735 35.512 118.915 44.5058 118.881 56.4862C118.881 64.5875 119.688 71.3501 121.301 76.7738C122.949 82.1633 125.266 86.2139 128.252 88.9258C131.239 91.6034 134.74 92.9421 138.757 92.9421ZM254.96 89.3377V83.7767C254.96 79.5544 255.852 75.6753 257.638 72.1396C259.457 68.5695 262.083 65.7203 265.516 63.592C268.983 61.4294 273.205 60.348 278.183 60.348C283.229 60.348 287.468 61.4122 290.901 63.5405C294.368 65.6688 296.977 68.518 298.728 72.0881C300.513 75.6238 301.405 79.52 301.405 83.7767V89.3377C301.405 93.56 300.513 97.4562 298.728 101.026C296.943 104.562 294.317 107.394 290.85 109.522C287.382 111.685 283.16 112.766 278.183 112.766C273.136 112.766 268.897 111.685 265.464 109.522C262.031 107.394 259.423 104.562 257.638 101.026C255.852 97.4562 254.96 93.56 254.96 89.3377ZM269.944 83.7767V89.3377C269.944 91.775 270.528 94.075 271.695 96.2376C272.896 98.4002 275.059 99.4816 278.183 99.4816C281.306 99.4816 283.435 98.4174 284.568 96.2891C285.735 94.1608 286.318 91.8437 286.318 89.3377V83.7767C286.318 81.2707 285.769 78.9365 284.671 76.7738C283.572 74.6112 281.409 73.5299 278.183 73.5299C275.093 73.5299 272.948 74.6112 271.746 76.7738C270.545 78.9365 269.944 81.2707 269.944 83.7767ZM200.842 28.9897V23.4287C200.842 19.172 201.752 15.2758 203.571 11.7401C205.391 8.17001 208.017 5.32082 211.45 3.1925C214.917 1.06419 219.105 3.09348e-05 224.014 3.09348e-05C229.094 3.09348e-05 233.351 1.06419 236.783 3.1925C240.216 5.32082 242.825 8.17001 244.61 11.7401C246.395 15.2758 247.288 19.172 247.288 23.4287V28.9897C247.288 33.2464 246.378 37.1425 244.559 40.6783C242.774 44.214 240.148 47.0461 236.68 49.1744C233.248 51.2684 229.025 52.3154 224.014 52.3154C219.002 52.3154 214.762 51.2512 211.295 49.1229C207.862 46.9603 205.254 44.1282 203.468 40.6268C201.718 37.0911 200.842 33.212 200.842 28.9897ZM215.929 23.4287V28.9897C215.929 31.4957 216.513 33.8128 217.68 35.9411C218.882 38.0694 220.993 39.1336 224.014 39.1336C227.172 39.1336 229.317 38.0694 230.45 35.9411C231.617 33.8128 232.201 31.4957 232.201 28.9897V23.4287C232.201 20.9227 231.651 18.5885 230.553 16.4258C229.455 14.2632 227.275 13.1818 224.014 13.1818C220.958 13.1818 218.847 14.2803 217.68 16.4773C216.513 18.6743 215.929 20.9914 215.929 23.4287ZM207.639 109.11L280.139 3.65593H293.63L221.13 109.11H207.639Z" fill="white"/>
</svg>
