<svg width="120" height="120" viewBox="0 0 120 120" fill="none" xmlns="http://www.w3.org/2000/svg">
<g opacity="0.5" clip-path="url(#clip0_207_363)">
<path d="M60 112.5C46.0761 112.5 32.7226 106.969 22.8769 97.1231C13.0312 87.2774 7.5 73.9239 7.5 60C7.5 46.0761 13.0312 32.7226 22.8769 22.8769C32.7226 13.0312 46.0761 7.5 60 7.5C73.9239 7.5 87.2774 13.0312 97.1231 22.8769C106.969 32.7226 112.5 46.0761 112.5 60C112.5 73.9239 106.969 87.2774 97.1231 97.1231C87.2774 106.969 73.9239 112.5 60 112.5ZM60 120C75.913 120 91.1742 113.679 102.426 102.426C113.679 91.1742 120 75.913 120 60C120 44.087 113.679 28.8258 102.426 17.5736C91.1742 6.32141 75.913 0 60 0C44.087 0 28.8258 6.32141 17.5736 17.5736C6.32141 28.8258 0 44.087 0 60C0 75.913 6.32141 91.1742 17.5736 102.426C28.8258 113.679 44.087 120 60 120Z" fill="black"/>
<path d="M92.4826 71.25C93.1408 72.3901 93.4874 73.6835 93.4874 75C93.4874 76.3165 93.1408 77.6099 92.4826 78.75C89.1907 84.4517 84.4558 89.1862 78.7538 92.4776C73.0518 95.769 66.5838 97.5011 60.0001 97.5C53.4176 97.4998 46.9512 95.767 41.2506 92.4757C35.5501 89.1844 30.8163 84.4506 27.5251 78.75C26.8671 77.6104 26.5206 76.3178 26.5203 75.0019C26.5199 73.6861 26.8658 72.3932 27.5232 71.2533C28.1805 70.1134 29.1262 69.1665 30.2653 68.5077C31.4043 67.8489 32.6967 67.5013 34.0126 67.5H85.9876C87.3041 67.5 88.5974 67.8466 89.7375 68.5049C90.8776 69.1631 91.8243 70.1099 92.4826 71.25ZM52.5001 48.75C52.5001 54.96 49.1401 48.75 45.0001 48.75C40.8601 48.75 37.5001 54.96 37.5001 48.75C37.5001 42.54 40.8601 37.5 45.0001 37.5C49.1401 37.5 52.5001 42.54 52.5001 48.75ZM82.5001 48.75C82.5001 54.96 79.1401 48.75 75.0001 48.75C70.8601 48.75 67.5001 54.96 67.5001 48.75C67.5001 42.54 70.8601 37.5 75.0001 37.5C79.1401 37.5 82.5001 42.54 82.5001 48.75Z" fill="black"/>
</g>
<defs>
<clipPath id="clip0_207_363">
<rect width="120" height="120" fill="white"/>
</clipPath>
</defs>
</svg>
