<svg width="350" height="350" viewBox="0 0 350 350" fill="none" xmlns="http://www.w3.org/2000/svg">
<path d="M259.12 103.699H147.003C126.362 103.699 109.63 120.431 109.63 141.071C109.63 161.712 126.362 178.444 147.003 178.444H259.12C279.76 178.444 296.492 161.712 296.492 141.071C296.492 120.431 279.76 103.699 259.12 103.699Z" fill="white"/>
<path d="M210.536 170.969H98.4183C77.7781 170.969 61.0459 187.701 61.0459 208.342C61.0459 228.982 77.7781 245.714 98.4183 245.714H210.536C231.176 245.714 247.908 228.982 247.908 208.342C247.908 187.701 231.176 170.969 210.536 170.969Z" fill="white"/>
<path d="M72.2575 126.122L77.3047 139.761L90.9437 144.809L77.3047 149.856L72.2575 163.495L67.2104 149.856L53.5713 144.809L67.2104 139.761L72.2575 126.122Z" fill="white"/>
</svg>
