<svg width="200" height="50" viewBox="0 0 200 50" fill="none" xmlns="http://www.w3.org/2000/svg">
<rect x="23" y="6" width="50" height="20" rx="10" fill="#5235EF"/>
<rect x="10" y="24" width="50" height="20" rx="10" fill="#5235EF"/>
<path d="M13 12L14.3505 15.6495L18 17L14.3505 18.3505L13 22L11.6495 18.3505L8 17L11.6495 15.6495L13 12Z" fill="#5235EF"/>
<path d="M185.629 25.1705V34H181.394V13.6364H185.51V21.4219H185.689C186.034 20.5204 186.591 19.8144 187.359 19.304C188.128 18.7869 189.093 18.5284 190.253 18.5284C191.314 18.5284 192.238 18.7604 193.027 19.2244C193.823 19.6818 194.439 20.3414 194.877 21.2031C195.321 22.0582 195.539 23.0824 195.533 24.2756V34H191.297V25.0313C191.304 24.09 191.065 23.3575 190.581 22.8338C190.104 22.3101 189.434 22.0483 188.573 22.0483C187.996 22.0483 187.485 22.1709 187.041 22.4162C186.604 22.6615 186.259 23.0194 186.007 23.4901C185.762 23.9541 185.636 24.5142 185.629 25.1705Z" fill="black"/>
<path d="M178.306 18.7273V21.9091H169.109V18.7273H178.306ZM171.197 15.0682H175.433V29.3068C175.433 29.6979 175.492 30.0028 175.611 30.2216C175.731 30.4337 175.897 30.5829 176.109 30.669C176.327 30.7552 176.579 30.7983 176.864 30.7983C177.063 30.7983 177.262 30.7817 177.461 30.7486C177.66 30.7088 177.812 30.679 177.918 30.6591L178.584 33.8111C178.372 33.8774 178.074 33.9536 177.69 34.0398C177.305 34.1326 176.838 34.1889 176.288 34.2088C175.267 34.2486 174.372 34.1127 173.603 33.8011C172.841 33.4896 172.247 33.0057 171.823 32.3494C171.399 31.6932 171.19 30.8646 171.197 29.8636V15.0682Z" fill="black"/>
<path d="M158.295 34.2884C157.321 34.2884 156.453 34.1193 155.69 33.7813C154.928 33.4366 154.325 32.9295 153.881 32.2599C153.443 31.5838 153.224 30.742 153.224 29.7344C153.224 28.8859 153.38 28.1733 153.692 27.5966C154.003 27.0199 154.427 26.5559 154.964 26.2045C155.501 25.8532 156.111 25.5881 156.794 25.4091C157.483 25.2301 158.206 25.1042 158.962 25.0313C159.85 24.9384 160.566 24.8523 161.109 24.7727C161.653 24.6866 162.047 24.5606 162.293 24.3949C162.538 24.2292 162.66 23.9839 162.66 23.6591V23.5994C162.66 22.9697 162.462 22.4825 162.064 22.1378C161.673 21.7931 161.116 21.6207 160.393 21.6207C159.631 21.6207 159.025 21.7898 158.574 22.1278C158.123 22.4593 157.825 22.8769 157.679 23.3807L153.761 23.0625C153.96 22.1345 154.351 21.3324 154.935 20.6563C155.518 19.9735 156.27 19.4498 157.192 19.0852C158.12 18.714 159.194 18.5284 160.413 18.5284C161.262 18.5284 162.074 18.6278 162.849 18.8267C163.632 19.0256 164.324 19.3338 164.927 19.7514C165.537 20.169 166.018 20.706 166.369 21.3622C166.721 22.0118 166.896 22.7907 166.896 23.6989V34H162.879V31.8821H162.76C162.515 32.3594 162.186 32.7803 161.775 33.1449C161.365 33.5028 160.871 33.7846 160.294 33.9901C159.717 34.1889 159.051 34.2884 158.295 34.2884ZM159.508 31.3651C160.132 31.3651 160.682 31.2424 161.159 30.9972C161.636 30.7453 162.011 30.4072 162.283 29.983C162.554 29.5587 162.69 29.0781 162.69 28.5412V26.9205C162.558 27.0066 162.375 27.0862 162.143 27.1591C161.918 27.2254 161.663 27.2884 161.378 27.348C161.093 27.401 160.808 27.4508 160.523 27.4972C160.238 27.5369 159.979 27.5734 159.747 27.6065C159.25 27.6795 158.816 27.7955 158.445 27.9545C158.073 28.1136 157.785 28.3291 157.579 28.6009C157.374 28.866 157.271 29.1974 157.271 29.5952C157.271 30.1719 157.48 30.6127 157.898 30.9176C158.322 31.2159 158.859 31.3651 159.508 31.3651Z" fill="black"/>
<path d="M136.301 34V13.6364H144.335C145.88 13.6364 147.195 13.9313 148.283 14.5213C149.37 15.1046 150.198 15.9167 150.768 16.9574C151.345 17.9915 151.633 19.1847 151.633 20.5369C151.633 21.8892 151.342 23.0824 150.758 24.1165C150.175 25.1506 149.33 25.956 148.223 26.5327C147.123 27.1094 145.79 27.3977 144.226 27.3977H139.105V23.9474H143.53C144.358 23.9474 145.041 23.8049 145.578 23.5199C146.122 23.2282 146.526 22.8272 146.791 22.3168C147.063 21.7997 147.199 21.2064 147.199 20.5369C147.199 19.8608 147.063 19.2708 146.791 18.767C146.526 18.2566 146.122 17.8622 145.578 17.5838C145.034 17.2988 144.345 17.1563 143.51 17.1563H140.606V34H136.301Z" fill="black"/>
<path d="M132.829 13.6364V34H128.593V13.6364H132.829Z" fill="black"/>
<path d="M125.2 13.6364V34H120.964V13.6364H125.2Z" fill="black"/>
<path d="M113.335 34V18.7273H117.571V34H113.335ZM115.463 16.7585C114.833 16.7585 114.293 16.5497 113.842 16.1321C113.398 15.7079 113.176 15.2008 113.176 14.6108C113.176 14.0275 113.398 13.527 113.842 13.1094C114.293 12.6851 114.833 12.473 115.463 12.473C116.092 12.473 116.629 12.6851 117.074 13.1094C117.524 13.527 117.75 14.0275 117.75 14.6108C117.75 15.2008 117.524 15.7079 117.074 16.1321C116.629 16.5497 116.092 16.7585 115.463 16.7585Z" fill="black"/>
<path d="M100.876 29.6051L100.886 24.5242H101.503L106.395 18.7273H111.257L104.684 26.4034H103.68L100.876 29.6051ZM97.0381 34V13.6364H101.274V34H97.0381ZM106.584 34L102.089 27.348L104.913 24.3551L111.545 34H106.584Z" fill="black"/>
<path d="M89.8167 19.4929C89.7371 18.6908 89.3957 18.0677 88.7925 17.6236C88.1893 17.1795 87.3706 16.9574 86.3365 16.9574C85.6339 16.9574 85.0406 17.0568 84.5567 17.2557C84.0728 17.4479 83.7016 17.7164 83.4431 18.0611C83.1912 18.4058 83.0652 18.7969 83.0652 19.2344C83.052 19.599 83.1282 19.9171 83.2939 20.1889C83.4663 20.4607 83.7016 20.696 83.9999 20.8949C84.2982 21.0871 84.6429 21.2562 85.034 21.402C85.4251 21.5412 85.8427 21.6605 86.2868 21.7599L88.1164 22.1974C89.0046 22.3963 89.82 22.6615 90.5624 22.9929C91.3048 23.3243 91.9478 23.732 92.4914 24.2159C93.0349 24.6998 93.4559 25.2699 93.7542 25.9261C94.0591 26.5824 94.2149 27.3348 94.2215 28.1832C94.2149 29.4295 93.8967 30.5099 93.2669 31.4247C92.6438 32.3329 91.7423 33.0388 90.5624 33.5426C89.3891 34.0398 87.9738 34.2884 86.3167 34.2884C84.6727 34.2884 83.2409 34.0365 82.0212 33.5327C80.8081 33.0289 79.8602 32.2831 79.1774 31.2955C78.5013 30.3011 78.1467 29.0715 78.1135 27.6065H82.2797C82.3261 28.2893 82.5217 28.8594 82.8664 29.3168C83.2177 29.7675 83.685 30.1089 84.2684 30.3409C84.8583 30.5663 85.5245 30.679 86.2669 30.679C86.9961 30.679 87.6292 30.5729 88.1661 30.3608C88.7096 30.1487 89.1306 29.8537 89.4289 29.4759C89.7272 29.098 89.8763 28.6638 89.8763 28.1733C89.8763 27.7159 89.7404 27.3314 89.4686 27.0199C89.2035 26.7083 88.8124 26.4432 88.2953 26.2244C87.7849 26.0057 87.1585 25.8068 86.4161 25.6278L84.1988 25.071C82.4819 24.6534 81.1263 24.0005 80.132 23.1122C79.1377 22.224 78.6438 21.0275 78.6505 19.5227C78.6438 18.2898 78.972 17.2126 79.6348 16.2912C80.3043 15.3698 81.2224 14.6506 82.3891 14.1335C83.5558 13.6165 84.8815 13.358 86.3664 13.358C87.8777 13.358 89.1969 13.6165 90.3238 14.1335C91.4573 14.6506 92.3389 15.3698 92.9686 16.2912C93.5984 17.2126 93.9232 18.2798 93.9431 19.4929H89.8167Z" fill="black"/>
</svg>
